<svg width="59" height="90" viewBox="0 0 59 90" fill="none" xmlns="http://www.w3.org/2000/svg">
<path d="M15.0513 89.6605C23.0898 89.6605 29.61 83.0208 29.61 74.8348V60.0091H15.0513C7.0128 60.0091 0.492676 66.6488 0.492676 74.8348C0.492676 83.0208 7.0128 89.6605 15.0513 89.6605Z" fill="#0ACF83"/>
<path d="M0.492676 45.1652C0.492676 36.9793 7.0128 30.3395 15.0513 30.3395H29.61V60.0091H15.0513C7.0128 59.9909 0.492676 53.3512 0.492676 45.1652Z" fill="#A259FF"/>
<path d="M0.492676 15.4956C0.492676 7.30965 7.0128 0.669922 15.0513 0.669922H29.61V30.3395H15.0513C7.0128 30.3395 0.492676 23.6816 0.492676 15.4956Z" fill="#F24E1E"/>
<path d="M29.6278 0.669922H44.1865C52.225 0.669922 58.7451 7.30965 58.7451 15.4956C58.7451 23.6816 52.225 30.3213 44.1865 30.3213H29.6278V0.669922Z" fill="#FF7262"/>
<path d="M58.7451 45.1652C58.7451 53.3512 52.225 59.9909 44.1865 59.9909C36.1479 59.9909 29.6278 53.3512 29.6278 45.1652C29.6278 36.9793 36.1479 30.3395 44.1865 30.3395C52.225 30.3395 58.7451 36.9793 58.7451 45.1652Z" fill="#1ABCFE"/>
</svg>
