<svg width="118" height="94" viewBox="0 0 118 94" fill="none" xmlns="http://www.w3.org/2000/svg">
<path d="M13.2374 1.86254C17.7819 1.86254 21.5691 3.45629 24.5988 6.6438C27.66 9.83131 29.1907 13.7605 29.1907 18.4313C29.1907 23.1021 27.66 27.0312 24.5988 30.2187C21.5691 33.4062 17.7819 35 13.2374 35H0.0770499V1.86254H13.2374ZM13.2374 28.7512C16.1093 28.7512 18.4447 27.8044 20.2436 25.9109C22.0425 23.9857 22.9419 21.4925 22.9419 18.4313C22.9419 15.37 22.0425 12.8926 20.2436 10.999C18.4447 9.07388 16.1093 8.11132 13.2374 8.11132H6.60986V28.7512H13.2374ZM38.7007 25.6742C39.5212 28.6408 41.7462 30.1241 45.3755 30.1241C47.7109 30.1241 49.4782 29.3351 50.6775 27.7571L55.6008 30.5975C53.2654 33.9743 49.8254 35.6627 45.2808 35.6627C41.3675 35.6627 38.2273 34.4793 35.8603 32.1123C33.4934 29.7453 32.3099 26.763 32.3099 23.1652C32.3099 19.599 33.4776 16.6324 35.813 14.2654C38.1484 11.8669 41.1465 10.6676 44.8074 10.6676C48.279 10.6676 51.1351 11.8669 53.3758 14.2654C55.6481 16.6639 56.7843 19.6305 56.7843 23.1652C56.7843 23.9542 56.7054 24.7905 56.5476 25.6742H38.7007ZM38.606 20.9402H50.6775C50.3304 19.3307 49.6045 18.1315 48.4999 17.3425C47.4269 16.5535 46.1961 16.159 44.8074 16.159C43.1663 16.159 41.8093 16.585 40.7363 17.4371C39.6632 18.2577 38.9532 19.4254 38.606 20.9402ZM74.2077 10.6676C76.7956 10.6676 78.9258 11.5355 80.5985 13.2713C82.3027 15.0071 83.1548 17.4056 83.1548 20.4669V35H77.048V21.2243C77.048 19.6463 76.622 18.447 75.7699 17.6265C74.9178 16.7744 73.7816 16.3483 72.3615 16.3483C70.7835 16.3483 69.5211 16.8375 68.5743 17.8159C67.6275 18.7942 67.1541 20.2617 67.1541 22.2184V35H61.0474V11.3304H67.1541V13.9814C68.6374 11.7722 70.9886 10.6676 74.2077 10.6676ZM91.3989 8.49003C90.389 8.49003 89.5053 8.1271 88.7479 7.40123C88.022 6.6438 87.6591 5.76014 87.6591 4.75023C87.6591 3.74033 88.022 2.85666 88.7479 2.09924C89.5053 1.34181 90.389 0.963095 91.3989 0.963095C92.4403 0.963095 93.324 1.34181 94.0499 2.09924C94.8073 2.85666 95.186 3.74033 95.186 4.75023C95.186 5.76014 94.8073 6.6438 94.0499 7.40123C93.324 8.1271 92.4403 8.49003 91.3989 8.49003ZM88.3691 35V11.3304H94.4759V35H88.3691ZM105.514 18.0526C105.514 18.6837 105.924 19.2045 106.745 19.6148C107.597 19.9935 108.622 20.3406 109.822 20.6562C111.021 20.9402 112.22 21.319 113.419 21.7924C114.619 22.2342 115.629 22.9916 116.449 24.0646C117.301 25.1377 117.727 26.4789 117.727 28.0885C117.727 30.5186 116.812 32.3963 114.982 33.7218C113.183 35.0158 110.926 35.6627 108.212 35.6627C103.352 35.6627 100.038 33.785 98.2708 30.0294L103.573 27.047C104.267 29.0984 105.814 30.1241 108.212 30.1241C110.39 30.1241 111.478 29.4455 111.478 28.0885C111.478 27.4573 111.052 26.9523 110.2 26.5736C109.38 26.1633 108.37 25.8004 107.171 25.4848C105.971 25.1692 104.772 24.7747 103.573 24.3013C102.374 23.8279 101.348 23.0863 100.496 22.0764C99.6752 21.0349 99.2649 19.741 99.2649 18.1946C99.2649 15.8592 100.117 14.0287 101.821 12.7032C103.557 11.3462 105.703 10.6676 108.259 10.6676C110.185 10.6676 111.936 11.1095 113.514 11.9931C115.092 12.8452 116.339 14.0761 117.254 15.6856L112.047 18.5259C111.289 16.9164 110.027 16.1116 108.259 16.1116C107.47 16.1116 106.808 16.2852 106.271 16.6324C105.766 16.9795 105.514 17.4529 105.514 18.0526ZM19.2494 59.8625H25.7823V93H20.8116L6.60986 72.7388V93H0.0770499V59.8625H5.04767L19.2494 80.0764V59.8625ZM51.8118 90.065C49.3817 92.4635 46.4151 93.6627 42.912 93.6627C39.4089 93.6627 36.4423 92.4635 34.0122 90.065C31.6137 87.6349 30.4145 84.6683 30.4145 81.1652C30.4145 77.6621 31.6137 74.7113 34.0122 72.3128C36.4423 69.8827 39.4089 68.6676 42.912 68.6676C46.4151 68.6676 49.3817 69.8827 51.8118 72.3128C54.2419 74.7113 55.4569 77.6621 55.4569 81.1652C55.4569 84.6683 54.2419 87.6349 51.8118 90.065ZM38.3201 85.8518C39.5509 87.0826 41.0816 87.698 42.912 87.698C44.7425 87.698 46.2731 87.0826 47.5039 85.8518C48.7347 84.621 49.3502 83.0588 49.3502 81.1652C49.3502 79.2716 48.7347 77.7094 47.5039 76.4786C46.2731 75.2478 44.7425 74.6324 42.912 74.6324C41.0816 74.6324 39.5509 75.2478 38.3201 76.4786C37.1209 77.7094 36.5212 79.2716 36.5212 81.1652C36.5212 83.0588 37.1209 84.621 38.3201 85.8518ZM74.403 69.3304H81.1251L72.1307 93H65.1718L56.1774 69.3304H62.8995L68.6276 85.8991L74.403 69.3304ZM87.0995 66.49C86.0896 66.49 85.2059 66.1271 84.4485 65.4012C83.7226 64.6438 83.3597 63.7601 83.3597 62.7502C83.3597 61.7403 83.7226 60.8567 84.4485 60.0992C85.2059 59.3418 86.0896 58.9631 87.0995 58.9631C88.141 58.9631 89.0246 59.3418 89.7505 60.0992C90.5079 60.8567 90.8866 61.7403 90.8866 62.7502C90.8866 63.7601 90.5079 64.6438 89.7505 65.4012C89.0246 66.1271 88.141 66.49 87.0995 66.49ZM84.0698 93V69.3304H90.1765V93H84.0698ZM117.589 93H110.488L101.873 82.254V93H95.7659V59.8625H101.873V79.745L110.015 69.3304H117.305L107.79 81.0232L117.589 93Z" fill="#070707"/>
</svg>
